<mxfile host="Electron" modified="2023-12-07T01:54:46.262Z" agent="Mozilla/5.0 (Macintosh; Intel Mac OS X 10_15_7) AppleWebKit/537.36 (KHTML, like Gecko) draw.io/22.1.2 Chrome/114.0.5735.289 Electron/25.9.4 Safari/537.36" etag="8LkHO7rcJ-izTWe2t6I2" version="22.1.2" type="device">
  <diagram id="C5RBs43oDa-KdzZeNtuy" name="Page-1">
    <mxGraphModel dx="428" dy="322" grid="1" gridSize="10" guides="1" tooltips="1" connect="1" arrows="1" fold="1" page="1" pageScale="1" pageWidth="827" pageHeight="1169" math="1" shadow="0">
      <root>
        <mxCell id="WIyWlLk6GJQsqaUBKTNV-0" />
        <mxCell id="WIyWlLk6GJQsqaUBKTNV-1" parent="WIyWlLk6GJQsqaUBKTNV-0" />
        <mxCell id="NpdbmDAtO5ZwGxCaajrW-2" style="edgeStyle=orthogonalEdgeStyle;rounded=0;orthogonalLoop=1;jettySize=auto;html=1;exitX=0.5;exitY=1;exitDx=0;exitDy=0;fontFamily=Comic Sans MS;" edge="1" parent="WIyWlLk6GJQsqaUBKTNV-1" source="WIyWlLk6GJQsqaUBKTNV-3" target="WIyWlLk6GJQsqaUBKTNV-7">
          <mxGeometry relative="1" as="geometry" />
        </mxCell>
        <mxCell id="WIyWlLk6GJQsqaUBKTNV-3" value="training set" style="rounded=1;whiteSpace=wrap;html=1;fontSize=12;glass=0;strokeWidth=1;shadow=0;fontFamily=Comic Sans MS;" parent="WIyWlLk6GJQsqaUBKTNV-1" vertex="1">
          <mxGeometry x="160" y="80" width="120" height="40" as="geometry" />
        </mxCell>
        <mxCell id="NpdbmDAtO5ZwGxCaajrW-3" style="edgeStyle=orthogonalEdgeStyle;rounded=0;orthogonalLoop=1;jettySize=auto;html=1;exitX=0.5;exitY=1;exitDx=0;exitDy=0;fontFamily=Comic Sans MS;" edge="1" parent="WIyWlLk6GJQsqaUBKTNV-1" source="WIyWlLk6GJQsqaUBKTNV-7" target="NpdbmDAtO5ZwGxCaajrW-1">
          <mxGeometry relative="1" as="geometry" />
        </mxCell>
        <mxCell id="WIyWlLk6GJQsqaUBKTNV-7" value="learning algorithm" style="rounded=1;whiteSpace=wrap;html=1;fontSize=12;glass=0;strokeWidth=1;shadow=0;fontFamily=Comic Sans MS;" parent="WIyWlLk6GJQsqaUBKTNV-1" vertex="1">
          <mxGeometry x="160" y="150" width="120" height="40" as="geometry" />
        </mxCell>
        <mxCell id="NpdbmDAtO5ZwGxCaajrW-14" style="edgeStyle=orthogonalEdgeStyle;rounded=0;orthogonalLoop=1;jettySize=auto;html=1;exitX=1;exitY=0.5;exitDx=0;exitDy=0;" edge="1" parent="WIyWlLk6GJQsqaUBKTNV-1" source="NpdbmDAtO5ZwGxCaajrW-1">
          <mxGeometry relative="1" as="geometry">
            <mxPoint x="280" y="235" as="targetPoint" />
          </mxGeometry>
        </mxCell>
        <mxCell id="NpdbmDAtO5ZwGxCaajrW-1" value="f" style="rounded=1;whiteSpace=wrap;html=1;fontFamily=Comic Sans MS;fontColor=#007FFF;strokeColor=#007FFF;" vertex="1" parent="WIyWlLk6GJQsqaUBKTNV-1">
          <mxGeometry x="200" y="220" width="40" height="30" as="geometry" />
        </mxCell>
        <mxCell id="NpdbmDAtO5ZwGxCaajrW-4" value="&lt;font color=&quot;#ff8000&quot;&gt;features&lt;/font&gt;&lt;br&gt;&lt;font color=&quot;#854200&quot;&gt;targets&lt;/font&gt;" style="text;html=1;align=center;verticalAlign=middle;resizable=0;points=[];autosize=1;strokeColor=none;fillColor=none;fontFamily=Comic Sans MS;" vertex="1" parent="WIyWlLk6GJQsqaUBKTNV-1">
          <mxGeometry x="280" y="80" width="70" height="40" as="geometry" />
        </mxCell>
        <mxCell id="NpdbmDAtO5ZwGxCaajrW-5" value="&lt;font color=&quot;#007fff&quot;&gt;function&lt;/font&gt;" style="text;html=1;align=center;verticalAlign=middle;resizable=0;points=[];autosize=1;strokeColor=none;fillColor=none;fontFamily=Comic Sans MS;" vertex="1" parent="WIyWlLk6GJQsqaUBKTNV-1">
          <mxGeometry x="220" y="250" width="70" height="30" as="geometry" />
        </mxCell>
        <mxCell id="NpdbmDAtO5ZwGxCaajrW-6" value="&lt;strike&gt;hypothesis&lt;/strike&gt;" style="text;html=1;align=center;verticalAlign=middle;resizable=0;points=[];autosize=1;strokeColor=none;fillColor=none;fontFamily=Comic Sans MS;fontColor=#007FFF;" vertex="1" parent="WIyWlLk6GJQsqaUBKTNV-1">
          <mxGeometry x="130" y="250" width="80" height="30" as="geometry" />
        </mxCell>
        <mxCell id="NpdbmDAtO5ZwGxCaajrW-8" style="edgeStyle=orthogonalEdgeStyle;rounded=0;orthogonalLoop=1;jettySize=auto;html=1;entryX=0;entryY=0.5;entryDx=0;entryDy=0;fontFamily=Comic Sans MS;" edge="1" parent="WIyWlLk6GJQsqaUBKTNV-1" source="NpdbmDAtO5ZwGxCaajrW-7" target="NpdbmDAtO5ZwGxCaajrW-1">
          <mxGeometry relative="1" as="geometry" />
        </mxCell>
        <mxCell id="NpdbmDAtO5ZwGxCaajrW-7" value="&lt;font color=&quot;#cc6600&quot;&gt;x&lt;/font&gt;" style="text;html=1;align=center;verticalAlign=middle;resizable=0;points=[];autosize=1;strokeColor=none;fillColor=none;fontFamily=Comic Sans MS;fontColor=#C4A74F;" vertex="1" parent="WIyWlLk6GJQsqaUBKTNV-1">
          <mxGeometry x="130" y="220" width="30" height="30" as="geometry" />
        </mxCell>
        <mxCell id="NpdbmDAtO5ZwGxCaajrW-11" value="&lt;font color=&quot;#ff33ff&quot;&gt;$$ \hat{y} $$&amp;nbsp;&lt;/font&gt;" style="text;html=1;align=center;verticalAlign=middle;resizable=0;points=[];autosize=1;strokeColor=none;fillColor=none;" vertex="1" parent="WIyWlLk6GJQsqaUBKTNV-1">
          <mxGeometry x="245" y="226" width="90" height="30" as="geometry" />
        </mxCell>
        <mxCell id="NpdbmDAtO5ZwGxCaajrW-15" value="&lt;font color=&quot;#007fff&quot;&gt;model&lt;/font&gt;" style="text;html=1;align=center;verticalAlign=middle;resizable=0;points=[];autosize=1;strokeColor=none;fillColor=none;fontFamily=Comic Sans MS;" vertex="1" parent="WIyWlLk6GJQsqaUBKTNV-1">
          <mxGeometry x="190" y="270" width="60" height="30" as="geometry" />
        </mxCell>
        <mxCell id="NpdbmDAtO5ZwGxCaajrW-16" value="&lt;font color=&quot;#ff8000&quot;&gt;features&lt;/font&gt;" style="text;html=1;align=center;verticalAlign=middle;resizable=0;points=[];autosize=1;strokeColor=none;fillColor=none;fontFamily=Comic Sans MS;" vertex="1" parent="WIyWlLk6GJQsqaUBKTNV-1">
          <mxGeometry x="70" y="240" width="70" height="30" as="geometry" />
        </mxCell>
        <mxCell id="NpdbmDAtO5ZwGxCaajrW-17" value="&lt;font color=&quot;#ff33ff&quot;&gt;prediction&lt;br&gt;estimated &lt;/font&gt;&lt;font color=&quot;#854200&quot;&gt;y&lt;/font&gt;" style="text;html=1;align=center;verticalAlign=middle;resizable=0;points=[];autosize=1;strokeColor=none;fillColor=none;" vertex="1" parent="WIyWlLk6GJQsqaUBKTNV-1">
          <mxGeometry x="290" y="235" width="80" height="40" as="geometry" />
        </mxCell>
        <mxCell id="NpdbmDAtO5ZwGxCaajrW-22" style="edgeStyle=orthogonalEdgeStyle;rounded=0;orthogonalLoop=1;jettySize=auto;html=1;" edge="1" parent="WIyWlLk6GJQsqaUBKTNV-1" source="NpdbmDAtO5ZwGxCaajrW-18" target="NpdbmDAtO5ZwGxCaajrW-20">
          <mxGeometry relative="1" as="geometry" />
        </mxCell>
        <mxCell id="NpdbmDAtO5ZwGxCaajrW-18" value="&lt;font color=&quot;#cc6600&quot;&gt;size&amp;nbsp;&lt;/font&gt;" style="text;html=1;align=center;verticalAlign=middle;resizable=0;points=[];autosize=1;strokeColor=none;fillColor=none;" vertex="1" parent="WIyWlLk6GJQsqaUBKTNV-1">
          <mxGeometry x="100" y="318" width="50" height="30" as="geometry" />
        </mxCell>
        <mxCell id="NpdbmDAtO5ZwGxCaajrW-23" style="edgeStyle=orthogonalEdgeStyle;rounded=0;orthogonalLoop=1;jettySize=auto;html=1;" edge="1" parent="WIyWlLk6GJQsqaUBKTNV-1" source="NpdbmDAtO5ZwGxCaajrW-20" target="NpdbmDAtO5ZwGxCaajrW-21">
          <mxGeometry relative="1" as="geometry" />
        </mxCell>
        <mxCell id="NpdbmDAtO5ZwGxCaajrW-20" value="f" style="text;html=1;align=center;verticalAlign=middle;resizable=0;points=[];autosize=1;strokeColor=#007FFF;fillColor=none;" vertex="1" parent="WIyWlLk6GJQsqaUBKTNV-1">
          <mxGeometry x="180" y="318" width="30" height="30" as="geometry" />
        </mxCell>
        <mxCell id="NpdbmDAtO5ZwGxCaajrW-21" value="&lt;font color=&quot;#ff33ff&quot;&gt;price&lt;br&gt;(estimated)&lt;/font&gt;" style="text;html=1;align=center;verticalAlign=middle;resizable=0;points=[];autosize=1;strokeColor=none;fillColor=none;" vertex="1" parent="WIyWlLk6GJQsqaUBKTNV-1">
          <mxGeometry x="270" y="313" width="80" height="40" as="geometry" />
        </mxCell>
      </root>
    </mxGraphModel>
  </diagram>
</mxfile>
